<?xml version="1.0" standalone="no"?>
<!DOCTYPE svg PUBLIC "-//W3C//DTD SVG 20010904//EN"
 "http://www.w3.org/TR/2001/REC-SVG-20010904/DTD/svg10.dtd">
<svg version="1.0" xmlns="http://www.w3.org/2000/svg"
 width="1233.000000pt" height="329.000000pt" viewBox="0 0 1233.000000 329.000000"
 preserveAspectRatio="xMidYMid meet">

<g transform="translate(0.000000,329.000000) scale(0.100000,-0.100000)"
fill="#000000" stroke="none">
<path d="M0 1645 l0 -1645 6165 0 6165 0 0 1645 0 1645 -6165 0 -6165 0 0
-1645z m9465 1260 l0 -360 -844 -3 c-465 -1 -848 1 -853 6 -4 4 24 46 63 92
131 158 214 257 271 326 31 38 96 116 143 174 48 58 94 111 103 118 13 9 136
12 567 10 l550 -3 0 -360z m-5415 348 c0 -11 -96 -93 -108 -93 -5 0 -17 -11
-26 -25 -9 -14 -26 -25 -37 -25 -11 0 -18 -4 -15 -9 3 -5 -25 -40 -62 -77 -38
-38 -78 -90 -91 -116 -12 -25 -28 -52 -36 -58 -8 -7 -30 -40 -49 -74 -20 -35
-41 -68 -49 -74 -8 -7 -25 -44 -38 -83 -20 -58 -29 -73 -51 -81 -17 -6 -25
-15 -21 -24 6 -16 -12 -19 -22 -4 -4 6 -100 10 -256 10 -138 0 -258 3 -267 8
-9 4 -126 6 -259 4 l-243 -4 0 -1233 c0 -1029 -2 -1234 -14 -1244 -9 -8 -153
-10 -517 -9 l-504 3 -3 1249 c-2 985 -5 1252 -15 1258 -6 4 -312 8 -679 8
-368 0 -668 2 -668 5 0 16 38 76 79 125 26 30 54 66 63 80 8 14 76 98 149 187
203 245 234 283 237 294 4 11 3502 13 3502 2z m8270 -1268 l0 -1274 -77 -93
c-43 -51 -89 -107 -103 -124 -14 -18 -65 -81 -115 -142 -49 -60 -130 -159
-180 -220 l-90 -111 -217 0 -218 -1 0 639 c0 352 -3 646 -6 655 -6 14 -96 16
-920 16 l-914 0 -2 -652 -3 -653 -485 -5 c-267 -3 -490 -4 -497 -2 -6 2 -13
11 -15 20 -1 9 -2 495 0 1080 l2 1062 1400 0 c1387 0 1400 0 1420 20 19 19 20
33 20 540 l0 520 500 0 500 0 0 -1275z m-4310 1211 c0 -2 -8 -10 -17 -17 -16
-13 -17 -12 -4 4 13 16 21 21 21 13z m-3861 -70 c9 -11 9 -16 -1 -22 -7 -4
-10 -4 -6 1 4 4 0 14 -10 21 -9 7 -12 14 -6 14 6 0 17 -6 23 -14z m3741 -80
c0 -2 -8 -10 -17 -17 -16 -13 -17 -12 -4 4 13 16 21 21 21 13z m-3970 -92 c0
-14 -3 -14 -15 -4 -8 7 -15 14 -15 16 0 2 7 4 15 4 8 0 15 -7 15 -16z m3900 2
c0 -2 -8 -10 -17 -17 -16 -13 -17 -12 -4 4 13 16 21 21 21 13z m-3880 -62
c-28 -31 -62 -79 -76 -105 -13 -27 -25 -49 -27 -49 -1 0 -2 14 -3 30 -1 18 4
30 11 30 7 0 30 27 51 60 22 32 44 59 50 60 6 0 17 7 24 15 7 8 15 15 17 15 3
0 -18 -25 -47 -56z m3800 -28 c0 -2 -8 -10 -17 -17 -16 -13 -17 -12 -4 4 13
16 21 21 21 13z m-40 -50 c0 -2 -8 -10 -17 -17 -16 -13 -17 -12 -4 4 13 16 21
21 21 13z m-50 -60 c0 -2 -8 -10 -17 -17 -16 -13 -17 -12 -4 4 13 16 21 21 21
13z m-40 -50 c0 -2 -8 -10 -17 -17 -16 -13 -17 -12 -4 4 13 16 21 21 21 13z
m-3800 -34 c0 -5 -7 -17 -15 -28 -14 -18 -14 -17 -4 9 12 27 19 34 19 19z
m-43 -104 c-3 -8 -6 -5 -6 6 -1 11 2 17 5 13 3 -3 4 -12 1 -19z m3141 -25
c-54 -2 -142 -2 -195 0 -54 1 -10 3 97 3 107 0 151 -2 98 -3z m-2084 -11 c-6
-4 -13 -15 -17 -24 -7 -21 -27 -24 -27 -5 0 18 21 37 40 37 9 0 11 -3 4 -8z
m-316 -389 c-136 -2 -361 -2 -500 0 -139 1 -28 2 247 2 275 0 389 -1 253 -2z
m3123 -190 c13 -16 12 -17 -3 -4 -10 7 -18 15 -18 17 0 8 8 3 21 -13z m-1293
-540 c-148 -2 -388 -2 -535 0 -148 1 -27 2 267 2 294 0 415 -1 268 -2z m-2088
-717 c0 -2 -8 -10 -17 -17 -16 -13 -17 -12 -4 4 13 16 21 21 21 13z m-40 -50
c0 -2 -8 -10 -17 -17 -16 -13 -17 -12 -4 4 13 16 21 21 21 13z m-40 -50 c0 -2
-8 -10 -17 -17 -16 -13 -17 -12 -4 4 13 16 21 21 21 13z m3690 -99 c0 -2 -15
-16 -32 -33 l-33 -29 29 33 c28 30 36 37 36 29z m-3810 -41 c0 -2 -8 -10 -17
-17 -16 -13 -17 -12 -4 4 13 16 21 21 21 13z m-100 -129 c0 -2 -12 -14 -27
-28 l-28 -24 24 28 c23 25 31 32 31 24z m3740 -1 c0 -2 -8 -10 -17 -17 -16
-13 -17 -12 -4 4 13 16 21 21 21 13z"/>
</g>
</svg>
